<?xml version="1.0" encoding="UTF-8" standalone="no"?>
<!-- Created with Inkscape (http://www.inkscape.org/) -->

<svg
   width="59.999996"
   height="59.999996"
   viewBox="0 0 19.483504 19.483504"
   version="1.1"
   id="svg1"
   xml:space="preserve"
   inkscape:version="1.3 (0e150ed6c4, 2023-07-21)"
   sodipodi:docname="logo.svg"
   inkscape:export-filename="logo.svg"
   inkscape:export-xdpi="62.337666"
   inkscape:export-ydpi="62.337666"
   xmlns:inkscape="http://www.inkscape.org/namespaces/inkscape"
   xmlns:sodipodi="http://sodipodi.sourceforge.net/DTD/sodipodi-0.dtd"
   xmlns="http://www.w3.org/2000/svg"
   xmlns:svg="http://www.w3.org/2000/svg"><sodipodi:namedview
     id="namedview1"
     pagecolor="#ffffff"
     bordercolor="#000000"
     borderopacity="0.25"
     inkscape:showpageshadow="2"
     inkscape:pageopacity="0.0"
     inkscape:pagecheckerboard="0"
     inkscape:deskcolor="#d1d1d1"
     inkscape:document-units="px"
     inkscape:zoom="7.9999996"
     inkscape:cx="51.375002"
     inkscape:cy="29.562501"
     inkscape:window-width="1920"
     inkscape:window-height="1137"
     inkscape:window-x="3832"
     inkscape:window-y="-8"
     inkscape:window-maximized="1"
     inkscape:current-layer="layer5-6"
     inkscape:export-bgcolor="#ffffff04" /><defs
     id="defs1" /><g
     inkscape:groupmode="layer"
     id="layer5-6"
     inkscape:label="Layer 4"
     style="fill:none;stroke-width:0.370511;stroke-dasharray:none"
     transform="translate(-96.903672,-138.71474)"><g
       id="g1"
       transform="matrix(0.90501122,0,0,0.87274562,11.530335,20.004566)"
       style="stroke:#a07f3a;stroke-width:0.490149;stroke-dasharray:none;stroke-opacity:1"><path
         style="fill:none;stroke:#383d3b;stroke-width:0.490149;stroke-linecap:round;stroke-dasharray:none;stroke-opacity:1"
         d="m 101.46328,144.53947 c 0.084,0.63555 0.53615,1.23193 0.54274,1.25687"
         id="path9-6"
         sodipodi:nodetypes="cc" /><path
         style="fill:none;stroke:#383d3b;stroke-width:0.490149;stroke-linecap:round;stroke-dasharray:none;stroke-opacity:1"
         d="m 105.03392,148.42433 c 0,0.92491 0,1.88401 0,2.88507"
         id="path10-3"
         sodipodi:nodetypes="cc" /><path
         style="fill:none;stroke:#383d3b;stroke-width:0.490149;stroke-linecap:round;stroke-dasharray:none;stroke-opacity:1"
         d="m 108.43317,147.99585 c 0.96148,-1.3447 2.76134,-1.56486 3.54208,-1.7996 -1.50892,1.61396 0.76532,2.4082 -2.94221,4.9132"
         id="path11-2"
         sodipodi:nodetypes="ccc" /><path
         style="fill:none;stroke:#383d3b;stroke-width:0.490149;stroke-linecap:round;stroke-dasharray:none;stroke-opacity:1"
         d="m 109.7186,148.59572 c -0.73132,1.14062 -1.36948,2.42098 -2.68512,2.68512"
         id="path13-7"
         sodipodi:nodetypes="cc" /><path
         style="fill:none;stroke:#383d3b;stroke-width:0.490149;stroke-linecap:round;stroke-dasharray:none;stroke-opacity:1"
         d="m 106.17653,152.08066 c 2.42002,-0.18742 3.97128,-0.96975 5.62732,-1.85673 -0.26863,-0.0932 -0.61668,0.007 -1.11404,-0.0286"
         id="path14-8"
         sodipodi:nodetypes="ccc" /><path
         style="fill:none;stroke:#383d3b;stroke-width:0.490149;stroke-linecap:round;stroke-dasharray:none;stroke-opacity:1"
         d="m 108.54743,144.42521 c -0.11466,0.98588 -0.29587,1.23975 -0.48561,1.39969"
         id="path23-7"
         sodipodi:nodetypes="cc" /><path
         style="fill:none;stroke:#383d3b;stroke-width:0.490149;stroke-linecap:round;stroke-dasharray:none;stroke-opacity:1"
         d="m 106.97634,144.25382 c 0.46965,-0.55072 1.41823,-0.73343 2.08526,-1.314 -0.0383,1.23921 0.70496,2.09337 0.74269,3.54208"
         id="path24-5"
         sodipodi:nodetypes="ccc" /><path
         style="fill:none;stroke:#383d3b;stroke-width:0.490149;stroke-linecap:round;stroke-dasharray:none;stroke-opacity:1"
         d="m 99.276048,150.11588 -0.74735,0.14139 c 1.540802,1.33197 3.798832,1.69685 5.453622,1.73708"
         id="path3-5"
         sodipodi:nodetypes="ccc" /><path
         style="fill:none;stroke:#383d3b;stroke-width:0.490149;stroke-linecap:round;stroke-dasharray:none;stroke-opacity:1"
         d="m 101.21511,151.14601 c -2.904318,-1.32383 -2.1218,-3.83774 -3.150979,-4.96885 1.263812,0.18523 2.870599,0.90143 3.777139,2.04006"
         id="path4-4"
         sodipodi:nodetypes="ccc" /><path
         style="fill:none;stroke:#383d3b;stroke-width:0.490149;stroke-linecap:round;stroke-dasharray:none;stroke-opacity:1"
         d="m 100.30618,146.54074 c -0.15616,-1.45164 0.75167,-2.10937 0.66655,-3.67615 1.09174,0.7271 1.51037,0.79592 2.05882,1.409"
         id="path5-7"
         sodipodi:nodetypes="ccc" /><path
         style="fill:none;stroke:#383d3b;stroke-width:0.490149;stroke-linecap:round;stroke-dasharray:none;stroke-opacity:1"
         d="m 100.34657,148.5202 c 0.70581,1.57316 1.74568,2.44481 2.98939,2.88839"
         id="path6-4"
         sodipodi:nodetypes="cc" /><path
         style="fill:none;stroke:#383d3b;stroke-width:0.490149;stroke-linecap:round;stroke-dasharray:none;stroke-opacity:1"
         d="m 102.89159,150.49966 c -0.81011,-1.93861 -1.37702,-3.67431 2.16125,-8.03903 1.3346,2.17778 3.93946,3.92194 2.20165,7.87744"
         id="path7-3"
         sodipodi:nodetypes="ccc" /><path
         style="fill:none;stroke:#383d3b;stroke-width:0.490149;stroke-linecap:round;stroke-dasharray:none;stroke-opacity:1"
         d="m 105.05284,146.19735 c -2.42867,2.4483 -2.49438,4.39317 -0.49229,5.74968 0.31249,0.21172 0.86388,0.10089 0.92968,0.0495 2.76356,-2.15763 0.77793,-4.19085 -0.43739,-5.79913 z"
         id="path8-4"
         sodipodi:nodetypes="csscc" /></g><circle
       style="fill:none;stroke:#383d3b;stroke-width:0.765748;stroke-linecap:round;stroke-dasharray:none;stroke-opacity:1"
       id="path2-9"
       cx="106.64542"
       cy="148.4565"
       r="9.3588781" /></g></svg>
