<svg width="45" height="45" viewBox="0 0 45 45" fill="none" xmlns="http://www.w3.org/2000/svg">
<circle cx="22.5" cy="22.5" r="22.5" fill="url(#paint0_linear_163_269)"/>
<path opacity="0.75" d="M35 33.4597L11.5476 10L10 11.5403L16.9048 18.4123L16.7857 18.6493C16.3095 18.0569 15.5952 17.5829 14.881 17.346C13.6905 16.9905 11.4286 17.109 11.0714 18.0569C10.7143 19.0047 12.619 20.4265 13.8095 20.6635C14.4048 20.782 15.2381 20.782 15.8333 20.6635V22.2038C15.8333 23.7441 16.4286 25.2844 17.2619 26.4692C16.4286 27.2986 15.8333 28.2464 15.8333 29.3128C15.8333 31.9194 19.0476 34.0521 22.9762 34.0521C25.9524 34.0521 28.5714 32.8673 29.6429 31.09L33.5714 35L35 33.4597ZM19.881 21.2559C19.5238 21.4929 19.4048 21.8483 19.4048 22.2038C19.4048 22.9147 19.881 23.3886 20.5952 23.3886C20.9524 23.3886 21.3095 23.2701 21.5476 22.9147L23.2143 24.5735H23.0952C21.7857 24.5735 20.4762 24.8104 19.4048 25.2844C18.5714 24.455 18.2143 23.3886 18.2143 22.2038C18.2143 21.4929 18.3333 20.782 18.6905 20.1896L19.881 21.2559ZM27.7381 29.3128C27.7381 30.6161 25.5952 31.6825 22.9762 31.6825C20.3571 31.6825 18.2143 30.6161 18.2143 29.3128C18.2143 28.0095 20.3571 26.9431 22.9762 26.9431C24.1667 26.9431 25.2381 27.1801 26.0714 27.5355L27.7381 29.1943V29.3128ZM20.2381 15.6872L17.9762 13.436C18.5714 12.6066 19.4048 11.8957 20.5952 11.5403L20.4762 11.6588C20.119 12.2512 19.2857 13.91 20.2381 15.6872ZM22.1429 17.5829L20.2381 15.6872C21.0714 15.3318 22.0238 15.0948 22.9762 15.0948C23.9286 15.0948 24.881 15.3318 25.7143 15.6872C26.6667 13.91 25.7143 12.2512 25.4762 11.7773L25.3571 11.5403C28.9286 12.7251 29.1667 16.2796 28.4524 17.7014L29.1667 18.6493C29.6429 18.0569 30.3571 17.5829 31.0714 17.346C32.2619 16.9905 34.5238 17.109 34.881 18.0569C35.2381 19.0047 33.3333 20.4265 32.1429 20.6635C31.5476 20.782 30.7143 20.782 30.119 20.6635V22.2038C30.119 23.1517 29.881 24.0995 29.5238 24.9289L27.619 23.0332C27.619 22.7962 27.7381 22.4408 27.7381 22.2038C27.7381 19.5972 25.5952 17.4645 22.9762 17.4645C22.7381 17.4645 22.381 17.4645 22.1429 17.5829ZM25.3571 29.9052C25.3571 30.2607 25.119 30.4976 24.7619 30.4976C24.4048 30.4976 24.1667 30.2607 24.1667 29.9052C24.1667 29.5498 24.4048 29.3128 24.7619 29.3128C25.119 29.3128 25.3571 29.5498 25.3571 29.9052ZM21.7857 29.9052C21.7857 30.2607 21.5476 30.4976 21.1905 30.4976C20.8333 30.4976 20.5952 30.2607 20.5952 29.9052C20.5952 29.5498 20.8333 29.3128 21.1905 29.3128C21.5476 29.3128 21.7857 29.5498 21.7857 29.9052Z" fill="#383D3B"/>
<defs>
<linearGradient id="paint0_linear_163_269" x1="9.57058" y1="44.3966" x2="35.4294" y2="6.60344" gradientUnits="userSpaceOnUse">
<stop stop-color="#ECAB32"/>
<stop offset="0.645" stop-color="#EFC572"/>
<stop offset="0.9999" stop-color="#EFC87B"/>
<stop offset="1" stop-color="#F0D395"/>
</linearGradient>
</defs>
</svg>
