<svg width="45" height="45" viewBox="0 0 45 45" fill="none" xmlns="http://www.w3.org/2000/svg">
<circle cx="22.5" cy="22.5" r="22.5" fill="url(#paint0_linear_163_270)"/>
<path opacity="0.75" d="M35 33.4881L11.5238 10L10 11.5119L13.7976 15.3095L12.881 15.8214C12.5 16.0238 12.25 16.4167 12.25 16.869V27.5833C12.25 28.0357 12.5 28.4286 12.881 28.631L22.2857 33.9167C22.4762 34.0595 22.7143 34.131 22.9643 34.131C23.2143 34.131 23.4524 34.0595 23.6429 33.9167L29.25 30.7619L33.4881 35L35 33.4881ZM14.631 26.881V18.9048L20.9286 22.4405L21.7738 23.2857V30.9048L14.631 26.881ZM24.1548 30.9048V25.6667L27.5119 29.0119L24.1548 30.9048ZM19.3929 14.869L17.6786 13.131L22.2857 10.5357C22.4762 10.3929 22.7143 10.3214 22.9643 10.3214C23.2143 10.3214 23.4524 10.3929 23.6429 10.5357L33.0476 15.8214C33.4286 16.0238 33.6786 16.4167 33.6786 16.869V27.5833C33.6786 28 33.4643 28.369 33.119 28.5714L31.2976 26.75V18.9048L26.2738 21.7262L24.5238 19.9762L30.0595 16.869L22.9643 12.881L19.3929 14.869Z" fill="#383D3B"/>
<defs>
<linearGradient id="paint0_linear_163_270" x1="9.57058" y1="44.3966" x2="35.4294" y2="6.60344" gradientUnits="userSpaceOnUse">
<stop stop-color="#ECAB32"/>
<stop offset="0.645" stop-color="#EFC572"/>
<stop offset="0.9999" stop-color="#EFC87B"/>
<stop offset="1" stop-color="#F0D395"/>
</linearGradient>
</defs>
</svg>
