<svg width="40" height="40" viewBox="0 0 40 40" fill="none" xmlns="http://www.w3.org/2000/svg">
<path d="M20 4C11.164 4 4 11.164 4 20C4 28.836 11.164 36 20 36C28.836 36 36 28.836 36 20C36 11.164 28.836 4 20 4ZM25.5747 14.6667H23.2693C21.8347 14.6667 21.3333 15.424 21.3333 16.9573V18.6667H25.5387L24.968 22.6667H21.3333V33.2667C20.8947 33.3093 20.4507 33.3333 20 33.3333C19.0867 33.3333 18.1947 33.24 17.3333 33.0653V22.6667H13.3333V18.6667H17.3333V16.5187C17.3333 12.452 19.3147 10.6667 22.6947 10.6667C24.3133 10.6667 25.1693 10.7867 25.5747 10.8413V14.6667Z" fill="#F3F3F3"/>
</svg>
