<svg width="40" height="40" viewBox="0 0 40 40" fill="none" xmlns="http://www.w3.org/2000/svg">
<path d="M20 2.66663C10.4426 2.66663 2.66663 10.4426 2.66663 20C2.66663 29.5573 10.4426 37.3333 20 37.3333C29.5573 37.3333 37.3333 29.5573 37.3333 20C37.3333 10.4426 29.5573 2.66663 20 2.66663ZM15.5546 7.99996H24.4427C28.6093 7.99996 32 11.3893 32 15.5546V24.4427C32 28.6093 28.6106 32 24.4453 32H15.5573C11.3906 32 7.99996 28.6106 7.99996 24.4453V15.5573C7.99996 11.3906 11.3893 7.99996 15.5546 7.99996ZM15.5546 10.6666C12.86 10.6666 10.6666 12.8613 10.6666 15.5573V24.4453C10.6666 27.1399 12.8613 29.3333 15.5573 29.3333H24.4453C27.1399 29.3333 29.3333 27.1387 29.3333 24.4427V15.5546C29.3333 12.86 27.1387 10.6666 24.4427 10.6666H15.5546ZM26.2239 12.888C26.7146 12.888 27.1119 13.2853 27.1119 13.776C27.1119 14.2667 26.7146 14.6666 26.2239 14.6666C25.7333 14.6666 25.3333 14.2667 25.3333 13.776C25.3333 13.2853 25.7333 12.888 26.2239 12.888ZM20 13.3333C23.676 13.3333 26.6666 16.324 26.6666 20C26.6666 23.676 23.676 26.6666 20 26.6666C16.324 26.6666 13.3333 23.676 13.3333 20C13.3333 16.324 16.324 13.3333 20 13.3333ZM20 16C18.9391 16 17.9217 16.4214 17.1715 17.1715C16.4214 17.9217 16 18.9391 16 20C16 21.0608 16.4214 22.0782 17.1715 22.8284C17.9217 23.5785 18.9391 24 20 24C21.0608 24 22.0782 23.5785 22.8284 22.8284C23.5785 22.0782 24 21.0608 24 20C24 18.9391 23.5785 17.9217 22.8284 17.1715C22.0782 16.4214 21.0608 16 20 16Z" fill="#F3F3F3"/>
</svg>
